<?xml version="1.0" encoding="UTF-8" standalone="no"?><!DOCTYPE svg PUBLIC "-//W3C//DTD SVG 1.1//EN" "http://www.w3.org/Graphics/SVG/1.1/DTD/svg11.dtd"><svg width="100%" height="100%" viewBox="0 0 3300 2550" version="1.1" xmlns="http://www.w3.org/2000/svg" xmlns:xlink="http://www.w3.org/1999/xlink" xml:space="preserve" xmlns:serif="http://www.serif.com/" style="fill-rule:evenodd;clip-rule:evenodd;stroke-miterlimit:1.5;"><g><g id="S"><rect id="S1" serif:id="S" x="636.465" y="1348.195" width="215.142" height="279.876" style="fill:none;stroke:#000;stroke-width:8.33px;"/><g transform="matrix(0.984483,0,0,1,-5.62108,0)"><g transform="matrix(156.750022,0,0,156.750022,814.321911,1578.169358)"></g><text x="709.771px" y="1578.169px" style="font-family:'ArialMT', 'Arial', sans-serif;font-size:156.75px;">S</text></g></g><g id="D"><rect id="D1" serif:id="D" x="851.606" y="1283.419" width="215.142" height="344.651" style="fill:none;stroke:#000;stroke-width:8.33px;"/><g transform="matrix(154.31773,0,0,154.31773,1013.05304,1580.08281)"></g><text x="901.61px" y="1580.083px" style="font-family:'ArialMT', 'Arial', sans-serif;font-size:154.318px;">D</text></g><g id="A"><rect id="A1" serif:id="A" x="421.323" y="1283.419" width="215.142" height="344.651" style="fill:none;stroke:#000;stroke-width:8.33px;"/><g transform="matrix(154.31773,0,0,154.31773,580.35789,1580.08281)"></g><text x="477.429px" y="1580.083px" style="font-family:'ArialMT', 'Arial', sans-serif;font-size:154.318px;">A</text></g><g id="L_Shift"><g transform="matrix(154.31773,0,0,154.31773,380.068971,1670.091577)"></g><text x="191.316px" y="1670.092px" style="font-family:'ArialMT', 'Arial', sans-serif;font-size:154.318px;">Sh</text><rect id="L_Shift1" serif:id="L_Shift" x="146.521" y="1504.458" width="274.802" height="220.804" style="fill:none;stroke:#000;stroke-width:8.33px;"/></g><g id="L_Ctrl"><g transform="matrix(154.31773,0,0,154.31773,405.499749,1890.895435)"></g><text x="165.509px" y="1890.895px" style="font-family:'ArialMT', 'Arial', sans-serif;font-size:154.318px;">Ctrl</text><rect id="L_Ctrl1" serif:id="L_Ctrl" x="146.521" y="1725.262" width="274.802" height="220.804" style="fill:none;stroke:#000;stroke-width:8.33px;"/></g><rect id="Space" x="972.525" y="1696.01" width="499.973" height="290.631" style="fill:none;stroke:#000;stroke-width:8.33px;"/><g id="W"><rect id="W1" serif:id="W" x="636.465" y="1068.319" width="215.142" height="279.876" style="fill:none;stroke:#000;stroke-width:8.33px;"/><g transform="matrix(0.984483,0,0,1,-5.962491,0)"><g transform="matrix(156.750022,0,0,156.750022,835.71668,1230.517897)"></g><text x="687.769px" y="1230.518px" style="font-family:'ArialMT', 'Arial', sans-serif;font-size:156.75px;">W</text></g></g><g id="Q"><rect id="Q1" serif:id="Q" x="421.323" y="1068.319" width="215.142" height="215.1" style="fill:none;stroke:#000;stroke-width:8.33px;"/><g transform="matrix(0.95962,0,0,1,-23.702942,0)"><g transform="matrix(160.811235,0,0,160.811235,637.880746,1229.970067)"></g><text x="512.797px" y="1229.97px" style="font-family:'ArialMT', 'Arial', sans-serif;font-size:160.811px;">Q</text></g></g><g id="E"><rect id="E1" serif:id="E" x="851.606" y="1068.319" width="215.142" height="215.1" style="fill:none;stroke:#000;stroke-width:8.33px;"/><g transform="matrix(0.95962,0,0,1,-6.042211,-0)"><g transform="matrix(160.811235,0,0,160.811235,1057.423332,1233.424996)"></g><text x="950.163px" y="1233.425px" style="font-family:'ArialMT', 'Arial', sans-serif;font-size:160.811px;">E</text></g></g><g id="R"><rect id="R1" serif:id="R" x="1066.666" y="1068.319" width="215.142" height="215.1" style="fill:none;stroke:#000;stroke-width:8.33px;"/><g transform="matrix(0.95962,0,0,1,2.343642,-0)"><g transform="matrix(160.811235,0,0,160.811235,1273.971338,1233.424996)"></g><text x="1157.839px" y="1233.425px" style="font-family:'ArialMT', 'Arial', sans-serif;font-size:160.811px;">R</text></g></g><g id="F"><rect id="F1" serif:id="F" x="1066.666" y="1283.419" width="215.142" height="206.414" style="fill:none;stroke:#000;stroke-width:8.33px;"/><g transform="matrix(154.31773,0,0,154.31773,1218.882074,1441.858071)"></g><text x="1124.619px" y="1441.858px" style="font-family:'ArialMT', 'Arial', sans-serif;font-size:154.318px;">F</text></g><g id="V"><rect id="V1" serif:id="V" x="1066.666" y="1489.833" width="215.142" height="206.414" style="fill:none;stroke:#000;stroke-width:8.33px;"/><g transform="matrix(154.31773,0,0,154.31773,1225.965016,1648.272403)"></g><text x="1123.036px" y="1648.272px" style="font-family:'ArialMT', 'Arial', sans-serif;font-size:154.318px;">V</text></g><g transform="matrix(154.31773,0,0,154.31773,1443.275725,1882.164913)"></g><text x="1005.716px" y="1882.165px" style="font-family:'ArialMT', 'Arial', sans-serif;font-size:154.318px;">Space</text></g><g><g id="S2" serif:id="S"><rect id="S3" serif:id="S" x="2216.284" y="1348.195" width="215.142" height="279.876" style="fill:none;stroke:#000;stroke-width:8.33px;"/><g transform="matrix(0.984483,0,0,1,18.892995,0)"><g transform="matrix(156.750022,0,0,156.750022,2394.140982,1578.169358)"></g><text x="2289.59px" y="1578.169px" style="font-family:'ArialMT', 'Arial', sans-serif;font-size:156.75px;">S</text></g></g><g id="D2" serif:id="D"><rect id="D3" serif:id="D" x="2431.426" y="1283.419" width="215.142" height="344.651" style="fill:none;stroke:#000;stroke-width:8.33px;"/><g transform="matrix(154.31773,0,0,154.31773,2592.87211,1580.08281)"></g><text x="2481.429px" y="1580.083px" style="font-family:'ArialMT', 'Arial', sans-serif;font-size:154.318px;">D</text></g><rect id="A2" serif:id="A" x="2001.142" y="1283.419" width="215.142" height="344.651" style="fill:none;stroke:#000;stroke-width:8.33px;"/><g transform="matrix(154.31773,0,0,154.31773,2160.17696,1580.08281)"></g><text x="2057.248px" y="1580.083px" style="font-family:'ArialMT', 'Arial', sans-serif;font-size:154.318px;">A</text><g id="L_Shift2" serif:id="L_Shift"><g transform="matrix(0.960505,0,0,1,28.396497,0)"><g transform="matrix(160.663151,0,0,160.663151,2005.264614,1776.496821)"></g><text x="1817.772px" y="1776.497px" style="font-family:'ArialMT', 'Arial', sans-serif;font-size:160.663px;">Alt</text></g><rect id="L_Shift3" serif:id="L_Shift" x="1726.34" y="1604.601" width="274.802" height="229.883" style="fill:none;stroke:#000;stroke-width:8.33px;"/></g><g id="L_Shift4" serif:id="L_Shift"><g transform="matrix(0.960505,0,0,1,28.26853,0)"><g transform="matrix(160.663151,0,0,160.663151,2011.046157,1508.299095)"></g><text x="1814.532px" y="1508.299px" style="font-family:'ArialMT', 'Arial', sans-serif;font-size:160.663px;">Sh</text></g><rect id="L_Shift5" serif:id="L_Shift" x="1726.34" y="1296.991" width="274.802" height="307.611" style="fill:none;stroke:#000;stroke-width:8.33px;"/></g><g id="L_Shift6" serif:id="L_Shift"><g transform="matrix(0.960505,0,0,1,27.249257,0)"><g transform="matrix(160.663151,0,0,160.663151,2038.583813,1240.763563)"></g><text x="1788.724px" y="1240.764px" style="font-family:'ArialMT', 'Arial', sans-serif;font-size:160.663px;">Ctrl</text></g><rect id="L_Shift7" serif:id="L_Shift" x="1726.34" y="1068.319" width="274.802" height="229.883" style="fill:none;stroke:#000;stroke-width:8.33px;"/></g><g><rect id="Space1" serif:id="Space" x="2646.485" y="1696.01" width="430.284" height="290.631" style="fill:none;stroke:#000;stroke-width:8.33px;"/><g transform="matrix(1,0,0,0.975105,0,24.32478)"><g transform="matrix(121.31377,0,0,121.31377,3033.409178,1895.495185)"></g><text x="2689.43px" y="1895.495px" style="font-family:'ArialMT', 'Arial', sans-serif;font-size:121.314px;">Space</text></g></g><g id="W2" serif:id="W"><rect id="W3" serif:id="W" x="2216.284" y="1068.319" width="215.142" height="279.876" style="fill:none;stroke:#000;stroke-width:8.33px;"/><g transform="matrix(0.984483,0,0,1,18.551584,0)"><g transform="matrix(156.750022,0,0,156.750022,2415.53575,1230.517897)"></g><text x="2267.588px" y="1230.518px" style="font-family:'ArialMT', 'Arial', sans-serif;font-size:156.75px;">W</text></g></g><g id="Q2" serif:id="Q"><rect id="Q3" serif:id="Q" x="2001.142" y="1068.319" width="215.142" height="215.1" style="fill:none;stroke:#000;stroke-width:8.33px;"/><g transform="matrix(0.95962,0,0,1,40.089634,0)"><g transform="matrix(160.811235,0,0,160.811235,2217.699817,1229.970067)"></g><text x="2092.616px" y="1229.97px" style="font-family:'ArialMT', 'Arial', sans-serif;font-size:160.811px;">Q</text></g></g><g id="Q4" serif:id="Q"><rect id="Q5" serif:id="Q" x="2001.142" y="853.219" width="215.142" height="215.1" style="fill:none;stroke:#000;stroke-width:8.33px;"/><g transform="matrix(0.95962,0,0,1,40.70981,-0)"><g transform="matrix(160.811235,0,0,160.811235,2197.409873,1017.539785)"></g><text x="2107.974px" y="1017.54px" style="font-family:'ArialMT', 'Arial', sans-serif;font-size:160.811px;">1</text></g></g><g id="Q6" serif:id="Q"><rect id="Q7" serif:id="Q" x="2216.284" y="853.219" width="215.142" height="215.1" style="fill:none;stroke:#000;stroke-width:8.33px;"/><g transform="matrix(0.95962,0,0,1,49.557673,-0)"><g transform="matrix(160.811235,0,0,160.811235,2416.526619,1017.539785)"></g><text x="2327.091px" y="1017.54px" style="font-family:'ArialMT', 'Arial', sans-serif;font-size:160.811px;">2</text></g></g><g id="Q8" serif:id="Q"><rect id="Q9" serif:id="Q" x="2431.426" y="853.219" width="215.142" height="215.1" style="fill:none;stroke:#000;stroke-width:8.33px;"/><g transform="matrix(0.95962,0,0,1,58.18546,-0)"><g transform="matrix(160.811235,0,0,160.811235,2630.193225,1017.539785)"></g><text x="2540.758px" y="1017.54px" style="font-family:'ArialMT', 'Arial', sans-serif;font-size:160.811px;">3</text></g></g><g id="Q10" serif:id="Q"><rect id="Q11" serif:id="Q" x="2646.568" y="853.219" width="215.142" height="215.1" style="fill:none;stroke:#000;stroke-width:8.33px;"/><g transform="matrix(0.95962,0,0,1,66.973229,-0)"><g transform="matrix(160.811235,0,0,160.811235,2847.821758,1016.558271)"></g><text x="2758.386px" y="1016.558px" style="font-family:'ArialMT', 'Arial', sans-serif;font-size:160.811px;">4</text></g></g><g id="E2" serif:id="E"><rect id="E3" serif:id="E" x="2431.426" y="1068.319" width="215.142" height="215.1" style="fill:none;stroke:#000;stroke-width:8.33px;"/><g transform="matrix(0.95962,0,0,1,57.750365,-0)"><g transform="matrix(160.811235,0,0,160.811235,2637.242402,1233.424996)"></g><text x="2529.983px" y="1233.425px" style="font-family:'ArialMT', 'Arial', sans-serif;font-size:160.811px;">E</text></g></g><g id="R2" serif:id="R"><rect id="R3" serif:id="R" x="2646.485" y="1068.319" width="215.142" height="215.1" style="fill:none;stroke:#000;stroke-width:8.33px;"/><g transform="matrix(0.95962,0,0,1,66.136218,-0)"><g transform="matrix(160.811235,0,0,160.811235,2853.790408,1233.424996)"></g><text x="2737.658px" y="1233.425px" style="font-family:'ArialMT', 'Arial', sans-serif;font-size:160.811px;">R</text></g></g><g id="F2" serif:id="F"><rect id="F3" serif:id="F" x="2646.485" y="1283.419" width="215.142" height="206.414" style="fill:none;stroke:#000;stroke-width:8.33px;"/><g transform="matrix(154.31773,0,0,154.31773,2798.701144,1441.858071)"></g><text x="2704.438px" y="1441.858px" style="font-family:'ArialMT', 'Arial', sans-serif;font-size:154.318px;">F</text></g><g id="V2" serif:id="V"><rect id="V3" serif:id="V" x="2646.485" y="1489.833" width="215.142" height="206.414" style="fill:none;stroke:#000;stroke-width:8.33px;"/><g transform="matrix(154.31773,0,0,154.31773,2805.784086,1648.272403)"></g><text x="2702.855px" y="1648.272px" style="font-family:'ArialMT', 'Arial', sans-serif;font-size:154.318px;">V</text></g><g id="Q12" serif:id="Q"><rect id="Q13" serif:id="Q" x="2861.709" y="853.219" width="215.142" height="215.1" style="fill:none;stroke:#000;stroke-width:8.33px;"/><g transform="matrix(0.95962,0,0,1,75.54164,-0)"><g transform="matrix(160.811235,0,0,160.811235,3060.017905,1016.558271)"></g><text x="2970.582px" y="1016.558px" style="font-family:'ArialMT', 'Arial', sans-serif;font-size:160.811px;">5</text></g></g><g id="R4" serif:id="R"><rect id="R5" serif:id="R" x="2861.627" y="1068.319" width="215.142" height="215.1" style="fill:none;stroke:#000;stroke-width:8.33px;"/><g transform="matrix(0.95962,0,0,1,75.365168,-0)"><g transform="matrix(160.811235,0,0,160.811235,3064.441943,1233.424996)"></g><text x="2966.212px" y="1233.425px" style="font-family:'ArialMT', 'Arial', sans-serif;font-size:160.811px;">T</text></g></g><g id="F4" serif:id="F"><rect id="F5" serif:id="F" x="2861.627" y="1283.419" width="215.142" height="206.414" style="fill:none;stroke:#000;stroke-width:8.33px;"/><g transform="matrix(154.31773,0,0,154.31773,3029.930433,1441.858071)"></g><text x="2909.897px" y="1441.858px" style="font-family:'ArialMT', 'Arial', sans-serif;font-size:154.318px;">G</text></g><g id="F6" serif:id="F"><rect id="F7" serif:id="F" x="2001.142" y="1628.07" width="215.142" height="206.414" style="fill:none;stroke:#000;stroke-width:8.33px;"/><g transform="matrix(154.31773,0,0,154.31773,2156.221061,1786.509273)"></g><text x="2061.958px" y="1786.509px" style="font-family:'ArialMT', 'Arial', sans-serif;font-size:154.318px;">Z</text></g><g id="F8" serif:id="F"><rect id="F9" serif:id="F" x="2216.284" y="1628.07" width="215.142" height="206.414" style="fill:none;stroke:#000;stroke-width:8.33px;"/><g transform="matrix(154.31773,0,0,154.31773,2375.469629,1786.509273)"></g><text x="2272.541px" y="1786.509px" style="font-family:'ArialMT', 'Arial', sans-serif;font-size:154.318px;">X</text></g><g id="F10" serif:id="F"><rect id="F11" serif:id="F" x="2431.426" y="1628.07" width="215.142" height="206.414" style="fill:none;stroke:#000;stroke-width:8.33px;"/><g transform="matrix(154.31773,0,0,154.31773,2591.13905,1786.509273)"></g><text x="2479.696px" y="1786.509px" style="font-family:'ArialMT', 'Arial', sans-serif;font-size:154.318px;">C</text></g><g id="V4" serif:id="V"><rect id="V5" serif:id="V" x="2861.627" y="1489.833" width="215.142" height="206.414" style="fill:none;stroke:#000;stroke-width:8.33px;"/><g transform="matrix(154.31773,0,0,154.31773,3020.926054,1648.272403)"></g><text x="2917.997px" y="1648.272px" style="font-family:'ArialMT', 'Arial', sans-serif;font-size:154.318px;">B</text></g></g><clipPath id="_clip1"><rect x="104.551" y="2145.833" width="3083.333" height="808.333"/></clipPath><g clip-path="url(#_clip1)"><g id="_1--in.-Tick-Group" serif:id="1 &quot;in. Tick Group"><path id="_1--in.-Tick-no.-0" serif:id="1 &quot;in. Tick no. 0" d="M146.217,2145.833l0,300" style="fill:none;fill-rule:nonzero;stroke:#000;stroke-width:4.17px;stroke-miterlimit:10;"/><text id="_1--in.-label-no.-0" serif:id="1 &quot;in. label no. 0" x="129.551px" y="2487.5px" style="font-family:'Consolas-Bold', 'Consolas', monospace;font-weight:700;font-size:50px;">0</text><path id="_1--in.-Tick-no.-1" serif:id="1 &quot;in. Tick no. 1" d="M446.217,2145.833l0,300" style="fill:none;fill-rule:nonzero;stroke:#000;stroke-width:4.17px;stroke-miterlimit:10;"/><text id="_1--in.-label-no.-1" serif:id="1 &quot;in. label no. 1" x="429.551px" y="2487.5px" style="font-family:'Consolas-Bold', 'Consolas', monospace;font-weight:700;font-size:50px;">1</text><path id="_1--in.-Tick-no.-2" serif:id="1 &quot;in. Tick no. 2" d="M746.217,2145.833l0,300" style="fill:none;fill-rule:nonzero;stroke:#000;stroke-width:4.17px;stroke-miterlimit:10;"/><text id="_1--in.-label-no.-2" serif:id="1 &quot;in. label no. 2" x="729.551px" y="2487.5px" style="font-family:'Consolas-Bold', 'Consolas', monospace;font-weight:700;font-size:50px;">2</text><path id="_1--in.-Tick-no.-3" serif:id="1 &quot;in. Tick no. 3" d="M1046.217,2145.833l0,300" style="fill:none;fill-rule:nonzero;stroke:#000;stroke-width:4.17px;stroke-miterlimit:10;"/><text id="_1--in.-label-no.-3" serif:id="1 &quot;in. label no. 3" x="1029.551px" y="2487.5px" style="font-family:'Consolas-Bold', 'Consolas', monospace;font-weight:700;font-size:50px;">3</text><path id="_1--in.-Tick-no.-4" serif:id="1 &quot;in. Tick no. 4" d="M1346.217,2145.833l0,300" style="fill:none;fill-rule:nonzero;stroke:#000;stroke-width:4.17px;stroke-miterlimit:10;"/><text id="_1--in.-label-no.-4" serif:id="1 &quot;in. label no. 4" x="1329.551px" y="2487.5px" style="font-family:'Consolas-Bold', 'Consolas', monospace;font-weight:700;font-size:50px;">4</text><path id="_1--in.-Tick-no.-5" serif:id="1 &quot;in. Tick no. 5" d="M1646.217,2145.833l0,300" style="fill:none;fill-rule:nonzero;stroke:#000;stroke-width:4.17px;stroke-miterlimit:10;"/><text id="_1--in.-label-no.-5" serif:id="1 &quot;in. label no. 5" x="1629.551px" y="2487.5px" style="font-family:'Consolas-Bold', 'Consolas', monospace;font-weight:700;font-size:50px;">5</text><path id="_1--in.-Tick-no.-6" serif:id="1 &quot;in. Tick no. 6" d="M1946.217,2145.833l0,300" style="fill:none;fill-rule:nonzero;stroke:#000;stroke-width:4.17px;stroke-miterlimit:10;"/><text id="_1--in.-label-no.-6" serif:id="1 &quot;in. label no. 6" x="1929.551px" y="2487.5px" style="font-family:'Consolas-Bold', 'Consolas', monospace;font-weight:700;font-size:50px;">6</text><path id="_1--in.-Tick-no.-7" serif:id="1 &quot;in. Tick no. 7" d="M2246.217,2145.833l0,300" style="fill:none;fill-rule:nonzero;stroke:#000;stroke-width:4.17px;stroke-miterlimit:10;"/><text id="_1--in.-label-no.-7" serif:id="1 &quot;in. label no. 7" x="2229.551px" y="2487.5px" style="font-family:'Consolas-Bold', 'Consolas', monospace;font-weight:700;font-size:50px;">7</text><path id="_1--in.-Tick-no.-8" serif:id="1 &quot;in. Tick no. 8" d="M2546.217,2145.833l0,300" style="fill:none;fill-rule:nonzero;stroke:#000;stroke-width:4.17px;stroke-miterlimit:10;"/><text id="_1--in.-label-no.-8" serif:id="1 &quot;in. label no. 8" x="2529.551px" y="2487.5px" style="font-family:'Consolas-Bold', 'Consolas', monospace;font-weight:700;font-size:50px;">8</text><path id="_1--in.-Tick-no.-9" serif:id="1 &quot;in. Tick no. 9" d="M2846.217,2145.833l0,300" style="fill:none;fill-rule:nonzero;stroke:#000;stroke-width:4.17px;stroke-miterlimit:10;"/><text id="_1--in.-label-no.-9" serif:id="1 &quot;in. label no. 9" x="2829.551px" y="2487.5px" style="font-family:'Consolas-Bold', 'Consolas', monospace;font-weight:700;font-size:50px;">9</text><path id="_1--in.-Tick-no.-10" serif:id="1 &quot;in. Tick no. 10" d="M3146.217,2145.833l0,300" style="fill:none;fill-rule:nonzero;stroke:#000;stroke-width:4.17px;stroke-miterlimit:10;"/><text id="_1--in.-label-no.-10" serif:id="1 &quot;in. label no. 10" x="3107.904px" y="2487.5px" style="font-family:'Consolas-Bold', 'Consolas', monospace;font-weight:700;font-size:50px;">10</text></g><g id="_1-2--in.-Tick-Group" serif:id="1/2 &quot;in. Tick Group"><path id="_1-2--in.-Tick-no.-1" serif:id="1/2 &quot;in. Tick no. 1" d="M296.217,2145.833l0,150" style="fill:none;fill-rule:nonzero;stroke:#000;stroke-width:4.17px;stroke-miterlimit:10;"/><path id="_1-2--in.-Tick-no.-3" serif:id="1/2 &quot;in. Tick no. 3" d="M596.217,2145.833l0,150" style="fill:none;fill-rule:nonzero;stroke:#000;stroke-width:4.17px;stroke-miterlimit:10;"/><path id="_1-2--in.-Tick-no.-5" serif:id="1/2 &quot;in. Tick no. 5" d="M896.217,2145.833l0,150" style="fill:none;fill-rule:nonzero;stroke:#000;stroke-width:4.17px;stroke-miterlimit:10;"/><path id="_1-2--in.-Tick-no.-7" serif:id="1/2 &quot;in. Tick no. 7" d="M1196.217,2145.833l0,150" style="fill:none;fill-rule:nonzero;stroke:#000;stroke-width:4.17px;stroke-miterlimit:10;"/><path id="_1-2--in.-Tick-no.-9" serif:id="1/2 &quot;in. Tick no. 9" d="M1496.217,2145.833l0,150" style="fill:none;fill-rule:nonzero;stroke:#000;stroke-width:4.17px;stroke-miterlimit:10;"/><path id="_1-2--in.-Tick-no.-11" serif:id="1/2 &quot;in. Tick no. 11" d="M1796.217,2145.833l0,150" style="fill:none;fill-rule:nonzero;stroke:#000;stroke-width:4.17px;stroke-miterlimit:10;"/><path id="_1-2--in.-Tick-no.-13" serif:id="1/2 &quot;in. Tick no. 13" d="M2096.217,2145.833l0,150" style="fill:none;fill-rule:nonzero;stroke:#000;stroke-width:4.17px;stroke-miterlimit:10;"/><path id="_1-2--in.-Tick-no.-15" serif:id="1/2 &quot;in. Tick no. 15" d="M2396.217,2145.833l0,150" style="fill:none;fill-rule:nonzero;stroke:#000;stroke-width:4.17px;stroke-miterlimit:10;"/><path id="_1-2--in.-Tick-no.-17" serif:id="1/2 &quot;in. Tick no. 17" d="M2696.217,2145.833l0,150" style="fill:none;fill-rule:nonzero;stroke:#000;stroke-width:4.17px;stroke-miterlimit:10;"/><path id="_1-2--in.-Tick-no.-19" serif:id="1/2 &quot;in. Tick no. 19" d="M2996.217,2145.833l0,150" style="fill:none;fill-rule:nonzero;stroke:#000;stroke-width:4.17px;stroke-miterlimit:10;"/></g><g id="_1-4--in.-Tick-Group" serif:id="1/4 &quot;in. Tick Group"><path id="_1-4--in.-Tick-no.-1" serif:id="1/4 &quot;in. Tick no. 1" d="M221.217,2145.833l0,75" style="fill:none;fill-rule:nonzero;stroke:#000;stroke-width:4.17px;stroke-miterlimit:10;"/><path id="_1-4--in.-Tick-no.-3" serif:id="1/4 &quot;in. Tick no. 3" d="M371.217,2145.833l0,75" style="fill:none;fill-rule:nonzero;stroke:#000;stroke-width:4.17px;stroke-miterlimit:10;"/><path id="_1-4--in.-Tick-no.-5" serif:id="1/4 &quot;in. Tick no. 5" d="M521.217,2145.833l0,75" style="fill:none;fill-rule:nonzero;stroke:#000;stroke-width:4.17px;stroke-miterlimit:10;"/><path id="_1-4--in.-Tick-no.-7" serif:id="1/4 &quot;in. Tick no. 7" d="M671.217,2145.833l0,75" style="fill:none;fill-rule:nonzero;stroke:#000;stroke-width:4.17px;stroke-miterlimit:10;"/><path id="_1-4--in.-Tick-no.-9" serif:id="1/4 &quot;in. Tick no. 9" d="M821.217,2145.833l0,75" style="fill:none;fill-rule:nonzero;stroke:#000;stroke-width:4.17px;stroke-miterlimit:10;"/><path id="_1-4--in.-Tick-no.-11" serif:id="1/4 &quot;in. Tick no. 11" d="M971.217,2145.833l0,75" style="fill:none;fill-rule:nonzero;stroke:#000;stroke-width:4.17px;stroke-miterlimit:10;"/><path id="_1-4--in.-Tick-no.-13" serif:id="1/4 &quot;in. Tick no. 13" d="M1121.217,2145.833l0,75" style="fill:none;fill-rule:nonzero;stroke:#000;stroke-width:4.17px;stroke-miterlimit:10;"/><path id="_1-4--in.-Tick-no.-15" serif:id="1/4 &quot;in. Tick no. 15" d="M1271.217,2145.833l0,75" style="fill:none;fill-rule:nonzero;stroke:#000;stroke-width:4.17px;stroke-miterlimit:10;"/><path id="_1-4--in.-Tick-no.-17" serif:id="1/4 &quot;in. Tick no. 17" d="M1421.217,2145.833l0,75" style="fill:none;fill-rule:nonzero;stroke:#000;stroke-width:4.17px;stroke-miterlimit:10;"/><path id="_1-4--in.-Tick-no.-19" serif:id="1/4 &quot;in. Tick no. 19" d="M1571.217,2145.833l0,75" style="fill:none;fill-rule:nonzero;stroke:#000;stroke-width:4.17px;stroke-miterlimit:10;"/><path id="_1-4--in.-Tick-no.-21" serif:id="1/4 &quot;in. Tick no. 21" d="M1721.217,2145.833l0,75" style="fill:none;fill-rule:nonzero;stroke:#000;stroke-width:4.17px;stroke-miterlimit:10;"/><path id="_1-4--in.-Tick-no.-23" serif:id="1/4 &quot;in. Tick no. 23" d="M1871.217,2145.833l0,75" style="fill:none;fill-rule:nonzero;stroke:#000;stroke-width:4.17px;stroke-miterlimit:10;"/><path id="_1-4--in.-Tick-no.-25" serif:id="1/4 &quot;in. Tick no. 25" d="M2021.217,2145.833l0,75" style="fill:none;fill-rule:nonzero;stroke:#000;stroke-width:4.17px;stroke-miterlimit:10;"/><path id="_1-4--in.-Tick-no.-27" serif:id="1/4 &quot;in. Tick no. 27" d="M2171.217,2145.833l0,75" style="fill:none;fill-rule:nonzero;stroke:#000;stroke-width:4.17px;stroke-miterlimit:10;"/><path id="_1-4--in.-Tick-no.-29" serif:id="1/4 &quot;in. Tick no. 29" d="M2321.217,2145.833l0,75" style="fill:none;fill-rule:nonzero;stroke:#000;stroke-width:4.17px;stroke-miterlimit:10;"/><path id="_1-4--in.-Tick-no.-31" serif:id="1/4 &quot;in. Tick no. 31" d="M2471.217,2145.833l0,75" style="fill:none;fill-rule:nonzero;stroke:#000;stroke-width:4.17px;stroke-miterlimit:10;"/><path id="_1-4--in.-Tick-no.-33" serif:id="1/4 &quot;in. Tick no. 33" d="M2621.217,2145.833l0,75" style="fill:none;fill-rule:nonzero;stroke:#000;stroke-width:4.17px;stroke-miterlimit:10;"/><path id="_1-4--in.-Tick-no.-35" serif:id="1/4 &quot;in. Tick no. 35" d="M2771.217,2145.833l0,75" style="fill:none;fill-rule:nonzero;stroke:#000;stroke-width:4.17px;stroke-miterlimit:10;"/><path id="_1-4--in.-Tick-no.-37" serif:id="1/4 &quot;in. Tick no. 37" d="M2921.217,2145.833l0,75" style="fill:none;fill-rule:nonzero;stroke:#000;stroke-width:4.17px;stroke-miterlimit:10;"/><path id="_1-4--in.-Tick-no.-39" serif:id="1/4 &quot;in. Tick no. 39" d="M3071.217,2145.833l0,75" style="fill:none;fill-rule:nonzero;stroke:#000;stroke-width:4.17px;stroke-miterlimit:10;"/></g><g id="_1-8--in.-Tick-Group" serif:id="1/8 &quot;in. Tick Group"><path id="_1-8--in.-Tick-no.-1" serif:id="1/8 &quot;in. Tick no. 1" d="M183.717,2145.833l0,37.5" style="fill:none;fill-rule:nonzero;stroke:#000;stroke-width:4.17px;stroke-miterlimit:10;"/><path id="_1-8--in.-Tick-no.-3" serif:id="1/8 &quot;in. Tick no. 3" d="M258.717,2145.833l0,37.5" style="fill:none;fill-rule:nonzero;stroke:#000;stroke-width:4.17px;stroke-miterlimit:10;"/><path id="_1-8--in.-Tick-no.-5" serif:id="1/8 &quot;in. Tick no. 5" d="M333.717,2145.833l0,37.5" style="fill:none;fill-rule:nonzero;stroke:#000;stroke-width:4.17px;stroke-miterlimit:10;"/><path id="_1-8--in.-Tick-no.-7" serif:id="1/8 &quot;in. Tick no. 7" d="M408.717,2145.833l0,37.5" style="fill:none;fill-rule:nonzero;stroke:#000;stroke-width:4.17px;stroke-miterlimit:10;"/><path id="_1-8--in.-Tick-no.-9" serif:id="1/8 &quot;in. Tick no. 9" d="M483.717,2145.833l0,37.5" style="fill:none;fill-rule:nonzero;stroke:#000;stroke-width:4.17px;stroke-miterlimit:10;"/><path id="_1-8--in.-Tick-no.-11" serif:id="1/8 &quot;in. Tick no. 11" d="M558.717,2145.833l0,37.5" style="fill:none;fill-rule:nonzero;stroke:#000;stroke-width:4.17px;stroke-miterlimit:10;"/><path id="_1-8--in.-Tick-no.-13" serif:id="1/8 &quot;in. Tick no. 13" d="M633.717,2145.833l0,37.5" style="fill:none;fill-rule:nonzero;stroke:#000;stroke-width:4.17px;stroke-miterlimit:10;"/><path id="_1-8--in.-Tick-no.-15" serif:id="1/8 &quot;in. Tick no. 15" d="M708.717,2145.833l0,37.5" style="fill:none;fill-rule:nonzero;stroke:#000;stroke-width:4.17px;stroke-miterlimit:10;"/><path id="_1-8--in.-Tick-no.-17" serif:id="1/8 &quot;in. Tick no. 17" d="M783.717,2145.833l0,37.5" style="fill:none;fill-rule:nonzero;stroke:#000;stroke-width:4.17px;stroke-miterlimit:10;"/><path id="_1-8--in.-Tick-no.-19" serif:id="1/8 &quot;in. Tick no. 19" d="M858.717,2145.833l0,37.5" style="fill:none;fill-rule:nonzero;stroke:#000;stroke-width:4.17px;stroke-miterlimit:10;"/><path id="_1-8--in.-Tick-no.-21" serif:id="1/8 &quot;in. Tick no. 21" d="M933.717,2145.833l0,37.5" style="fill:none;fill-rule:nonzero;stroke:#000;stroke-width:4.17px;stroke-miterlimit:10;"/><path id="_1-8--in.-Tick-no.-23" serif:id="1/8 &quot;in. Tick no. 23" d="M1008.717,2145.833l0,37.5" style="fill:none;fill-rule:nonzero;stroke:#000;stroke-width:4.17px;stroke-miterlimit:10;"/><path id="_1-8--in.-Tick-no.-25" serif:id="1/8 &quot;in. Tick no. 25" d="M1083.717,2145.833l0,37.5" style="fill:none;fill-rule:nonzero;stroke:#000;stroke-width:4.17px;stroke-miterlimit:10;"/><path id="_1-8--in.-Tick-no.-27" serif:id="1/8 &quot;in. Tick no. 27" d="M1158.717,2145.833l0,37.5" style="fill:none;fill-rule:nonzero;stroke:#000;stroke-width:4.17px;stroke-miterlimit:10;"/><path id="_1-8--in.-Tick-no.-29" serif:id="1/8 &quot;in. Tick no. 29" d="M1233.717,2145.833l0,37.5" style="fill:none;fill-rule:nonzero;stroke:#000;stroke-width:4.17px;stroke-miterlimit:10;"/><path id="_1-8--in.-Tick-no.-31" serif:id="1/8 &quot;in. Tick no. 31" d="M1308.717,2145.833l0,37.5" style="fill:none;fill-rule:nonzero;stroke:#000;stroke-width:4.17px;stroke-miterlimit:10;"/><path id="_1-8--in.-Tick-no.-33" serif:id="1/8 &quot;in. Tick no. 33" d="M1383.717,2145.833l0,37.5" style="fill:none;fill-rule:nonzero;stroke:#000;stroke-width:4.17px;stroke-miterlimit:10;"/><path id="_1-8--in.-Tick-no.-35" serif:id="1/8 &quot;in. Tick no. 35" d="M1458.717,2145.833l0,37.5" style="fill:none;fill-rule:nonzero;stroke:#000;stroke-width:4.17px;stroke-miterlimit:10;"/><path id="_1-8--in.-Tick-no.-37" serif:id="1/8 &quot;in. Tick no. 37" d="M1533.717,2145.833l0,37.5" style="fill:none;fill-rule:nonzero;stroke:#000;stroke-width:4.17px;stroke-miterlimit:10;"/><path id="_1-8--in.-Tick-no.-39" serif:id="1/8 &quot;in. Tick no. 39" d="M1608.717,2145.833l0,37.5" style="fill:none;fill-rule:nonzero;stroke:#000;stroke-width:4.17px;stroke-miterlimit:10;"/><path id="_1-8--in.-Tick-no.-41" serif:id="1/8 &quot;in. Tick no. 41" d="M1683.717,2145.833l0,37.5" style="fill:none;fill-rule:nonzero;stroke:#000;stroke-width:4.17px;stroke-miterlimit:10;"/><path id="_1-8--in.-Tick-no.-43" serif:id="1/8 &quot;in. Tick no. 43" d="M1758.717,2145.833l0,37.5" style="fill:none;fill-rule:nonzero;stroke:#000;stroke-width:4.17px;stroke-miterlimit:10;"/><path id="_1-8--in.-Tick-no.-45" serif:id="1/8 &quot;in. Tick no. 45" d="M1833.717,2145.833l0,37.5" style="fill:none;fill-rule:nonzero;stroke:#000;stroke-width:4.17px;stroke-miterlimit:10;"/><path id="_1-8--in.-Tick-no.-47" serif:id="1/8 &quot;in. Tick no. 47" d="M1908.717,2145.833l0,37.5" style="fill:none;fill-rule:nonzero;stroke:#000;stroke-width:4.17px;stroke-miterlimit:10;"/><path id="_1-8--in.-Tick-no.-49" serif:id="1/8 &quot;in. Tick no. 49" d="M1983.717,2145.833l0,37.5" style="fill:none;fill-rule:nonzero;stroke:#000;stroke-width:4.17px;stroke-miterlimit:10;"/><path id="_1-8--in.-Tick-no.-51" serif:id="1/8 &quot;in. Tick no. 51" d="M2058.717,2145.833l0,37.5" style="fill:none;fill-rule:nonzero;stroke:#000;stroke-width:4.17px;stroke-miterlimit:10;"/><path id="_1-8--in.-Tick-no.-53" serif:id="1/8 &quot;in. Tick no. 53" d="M2133.717,2145.833l0,37.5" style="fill:none;fill-rule:nonzero;stroke:#000;stroke-width:4.17px;stroke-miterlimit:10;"/><path id="_1-8--in.-Tick-no.-55" serif:id="1/8 &quot;in. Tick no. 55" d="M2208.717,2145.833l0,37.5" style="fill:none;fill-rule:nonzero;stroke:#000;stroke-width:4.17px;stroke-miterlimit:10;"/><path id="_1-8--in.-Tick-no.-57" serif:id="1/8 &quot;in. Tick no. 57" d="M2283.717,2145.833l0,37.5" style="fill:none;fill-rule:nonzero;stroke:#000;stroke-width:4.17px;stroke-miterlimit:10;"/><path id="_1-8--in.-Tick-no.-59" serif:id="1/8 &quot;in. Tick no. 59" d="M2358.717,2145.833l0,37.5" style="fill:none;fill-rule:nonzero;stroke:#000;stroke-width:4.17px;stroke-miterlimit:10;"/><path id="_1-8--in.-Tick-no.-61" serif:id="1/8 &quot;in. Tick no. 61" d="M2433.717,2145.833l0,37.5" style="fill:none;fill-rule:nonzero;stroke:#000;stroke-width:4.17px;stroke-miterlimit:10;"/><path id="_1-8--in.-Tick-no.-63" serif:id="1/8 &quot;in. Tick no. 63" d="M2508.717,2145.833l0,37.5" style="fill:none;fill-rule:nonzero;stroke:#000;stroke-width:4.17px;stroke-miterlimit:10;"/><path id="_1-8--in.-Tick-no.-65" serif:id="1/8 &quot;in. Tick no. 65" d="M2583.717,2145.833l0,37.5" style="fill:none;fill-rule:nonzero;stroke:#000;stroke-width:4.17px;stroke-miterlimit:10;"/><path id="_1-8--in.-Tick-no.-67" serif:id="1/8 &quot;in. Tick no. 67" d="M2658.717,2145.833l0,37.5" style="fill:none;fill-rule:nonzero;stroke:#000;stroke-width:4.17px;stroke-miterlimit:10;"/><path id="_1-8--in.-Tick-no.-69" serif:id="1/8 &quot;in. Tick no. 69" d="M2733.717,2145.833l0,37.5" style="fill:none;fill-rule:nonzero;stroke:#000;stroke-width:4.17px;stroke-miterlimit:10;"/><path id="_1-8--in.-Tick-no.-71" serif:id="1/8 &quot;in. Tick no. 71" d="M2808.717,2145.833l0,37.5" style="fill:none;fill-rule:nonzero;stroke:#000;stroke-width:4.17px;stroke-miterlimit:10;"/><path id="_1-8--in.-Tick-no.-73" serif:id="1/8 &quot;in. Tick no. 73" d="M2883.717,2145.833l0,37.5" style="fill:none;fill-rule:nonzero;stroke:#000;stroke-width:4.17px;stroke-miterlimit:10;"/><path id="_1-8--in.-Tick-no.-75" serif:id="1/8 &quot;in. Tick no. 75" d="M2958.717,2145.833l0,37.5" style="fill:none;fill-rule:nonzero;stroke:#000;stroke-width:4.17px;stroke-miterlimit:10;"/><path id="_1-8--in.-Tick-no.-77" serif:id="1/8 &quot;in. Tick no. 77" d="M3033.717,2145.833l0,37.5" style="fill:none;fill-rule:nonzero;stroke:#000;stroke-width:4.17px;stroke-miterlimit:10;"/><path id="_1-8--in.-Tick-no.-79" serif:id="1/8 &quot;in. Tick no. 79" d="M3108.717,2145.833l0,37.5" style="fill:none;fill-rule:nonzero;stroke:#000;stroke-width:4.17px;stroke-miterlimit:10;"/></g></g><g transform="matrix(377.409121,0,0,377.409121,1355.003452,642.404804)"></g><text x="200.662px" y="642.405px" style="font-family:'Arial-BoldItalicMT', 'Arial', sans-serif;font-weight:700;font-style:italic;font-size:377.409px;">12 key</text><g transform="matrix(377.409121,0,0,377.409121,2944.213533,641.851958)"></g><text x="1789.872px" y="641.852px" style="font-family:'Arial-BoldItalicMT', 'Arial', sans-serif;font-weight:700;font-style:italic;font-size:377.409px;">24 key</text></svg>